{
    "asset" : {
        "generator" : "Khronos glTF Blender I/O v3.4.49",
        "version" : "2.0"
    },
    "scene" : 0,
    "scenes" : [
        {
            "name" : "Scene",
            "nodes" : [
                0
            ]
        }
    ],
    "nodes" : [
        {
            "mesh" : 0,
            "name" : "Plane",
            "scale" : [
                20,
                20,
                20
            ]
        }
    ],
    "meshes" : [
        {
            "name" : "Plane",
            "primitives" : [
                {
                    "attributes" : {
                        "POSITION" : 0,
                        "TEXCOORD_0" : 1,
                        "NORMAL" : 2
                    },
                    "indices" : 3
                },
                {
                    "attributes" : {
                        "POSITION" : 4,
                        "TEXCOORD_0" : 5,
                        "NORMAL" : 6
                    },
                    "indices" : 7
                },
                {
                    "attributes" : {
                        "POSITION" : 8,
                        "TEXCOORD_0" : 9,
                        "NORMAL" : 10
                    },
                    "indices" : 11
                }
            ]
        }
    ],
    "accessors" : [
        {
            "bufferView" : 0,
            "componentType" : 5126,
            "count" : 17474,
            "max" : [
                1.0312696695327759,
                0.3107288181781769,
                1.0586079359054565
            ],
            "min" : [
                -1.074488639831543,
                -0.061260469257831573,
                -1.0181665420532227
            ],
            "type" : "VEC3"
        },
        {
            "bufferView" : 1,
            "componentType" : 5126,
            "count" : 17474,
            "type" : "VEC2"
        },
        {
            "bufferView" : 2,
            "componentType" : 5126,
            "count" : 17474,
            "type" : "VEC3"
        },
        {
            "bufferView" : 3,
            "componentType" : 5123,
            "count" : 17490,
            "type" : "SCALAR"
        },
        {
            "bufferView" : 4,
            "componentType" : 5126,
            "count" : 6584,
            "max" : [
                0.9999313950538635,
                0.28473663330078125,
                0.9995151162147522
            ],
            "min" : [
                -0.9493404030799866,
                -0.04227197542786598,
                -0.9989528656005859
            ],
            "type" : "VEC3"
        },
        {
            "bufferView" : 5,
            "componentType" : 5126,
            "count" : 6584,
            "type" : "VEC2"
        },
        {
            "bufferView" : 6,
            "componentType" : 5126,
            "count" : 6584,
            "type" : "VEC3"
        },
        {
            "bufferView" : 7,
            "componentType" : 5123,
            "count" : 6585,
            "type" : "SCALAR"
        },
        {
            "bufferView" : 8,
            "componentType" : 5126,
            "count" : 2913,
            "max" : [
                0.8888888955116272,
                0.021769434213638306,
                1
            ],
            "min" : [
                -1,
                -0.061399929225444794,
                -0.8333333730697632
            ],
            "type" : "VEC3"
        },
        {
            "bufferView" : 9,
            "componentType" : 5126,
            "count" : 2913,
            "type" : "VEC2"
        },
        {
            "bufferView" : 10,
            "componentType" : 5126,
            "count" : 2913,
            "type" : "VEC3"
        },
        {
            "bufferView" : 11,
            "componentType" : 5123,
            "count" : 2919,
            "type" : "SCALAR"
        }
    ],
    "bufferViews" : [
        {
            "buffer" : 0,
            "byteLength" : 209688,
            "byteOffset" : 0,
            "target" : 34962
        },
        {
            "buffer" : 0,
            "byteLength" : 139792,
            "byteOffset" : 209688,
            "target" : 34962
        },
        {
            "buffer" : 0,
            "byteLength" : 209688,
            "byteOffset" : 349480,
            "target" : 34962
        },
        {
            "buffer" : 0,
            "byteLength" : 34980,
            "byteOffset" : 559168,
            "target" : 34963
        },
        {
            "buffer" : 0,
            "byteLength" : 79008,
            "byteOffset" : 594148,
            "target" : 34962
        },
        {
            "buffer" : 0,
            "byteLength" : 52672,
            "byteOffset" : 673156,
            "target" : 34962
        },
        {
            "buffer" : 0,
            "byteLength" : 79008,
            "byteOffset" : 725828,
            "target" : 34962
        },
        {
            "buffer" : 0,
            "byteLength" : 13170,
            "byteOffset" : 804836,
            "target" : 34963
        },
        {
            "buffer" : 0,
            "byteLength" : 34956,
            "byteOffset" : 818008,
            "target" : 34962
        },
        {
            "buffer" : 0,
            "byteLength" : 23304,
            "byteOffset" : 852964,
            "target" : 34962
        },
        {
            "buffer" : 0,
            "byteLength" : 34956,
            "byteOffset" : 876268,
            "target" : 34962
        },
        {
            "buffer" : 0,
            "byteLength" : 5838,
            "byteOffset" : 911224,
            "target" : 34963
        }
    ],
    "buffers" : [
        {
            "byteLength" : 917064,
            "uri" : "data:application/octet-stream;base64,"
        }
    ]
}
